<?xml version="1.0" encoding="utf-8"?>
<!-- Generator: Adobe Illustrator 22.1.0, SVG Export Plug-In . SVG Version: 6.00 Build 0)  -->
<svg version="1.1" id="Слой_1" xmlns="http://www.w3.org/2000/svg" xmlns:xlink="http://www.w3.org/1999/xlink" x="0px" y="0px"
	 viewBox="0 0 24 24" style="enable-background:new 0 0 24 24;" xml:space="preserve">
<style type="text/css">
	.st0{fill:none;}
	.st1{clip-path:url(#SVGID_2_);}
	.st2{fill:#9197B3;}
</style>
<path class="st0" d="M0,0h24v24H0V0z"/>
<g>
	<defs>
		<rect id="SVGID_1_" width="24" height="24"/>
	</defs>
	<clipPath id="SVGID_2_">
		<use xlink:href="#SVGID_1_"  style="overflow:visible;"/>
	</clipPath>
	<g class="st1">
		<path class="st2" d="M15,22.8H9c-5.4,0-7.8-2.3-7.8-7.8V9c0-5.4,2.3-7.8,7.8-7.8h6c5.4,0,7.8,2.3,7.8,7.8v6
			C22.8,20.4,20.4,22.8,15,22.8z M9,2.8C4.4,2.8,2.8,4.4,2.8,9v6c0,4.6,1.6,6.3,6.3,6.3h6c4.6,0,6.3-1.6,6.3-6.3V9
			c0-4.6-1.6-6.3-6.3-6.3H9z"/>
		<path class="st2" d="M8.8,18.2c-0.1,0-0.1,0-0.2,0l-1.2-0.2C6.7,18,6,17.4,5.9,16.6l-0.2-1.2c-0.1-0.5,0.1-1.1,0.5-1.4l2.3-2.3
			c-0.3-1.6,0.2-3.3,1.3-4.5c1.9-1.9,5-1.9,7,0c0.9,0.9,1.4,2.2,1.4,3.5c0,1.3-0.5,2.5-1.4,3.5c-1.2,1.2-2.9,1.7-4.5,1.3L10,17.7
			C9.8,18,9.3,18.2,8.8,18.2z M13.3,7.3c-0.9,0-1.7,0.3-2.4,1c-0.9,0.9-1.2,2.2-0.9,3.4c0.1,0.3,0,0.6-0.2,0.7L7.3,15
			c0,0-0.1,0.1-0.1,0.2l0.2,1.2c0,0.1,0.1,0.2,0.2,0.2l1.2,0.2c0.1,0,0.1,0,0.2-0.1l2.6-2.6c0.2-0.2,0.5-0.3,0.8-0.2
			c1.2,0.4,2.5,0.1,3.4-0.8c0.6-0.6,1-1.5,1-2.4c0-0.9-0.4-1.8-1-2.4C15.1,7.6,14.2,7.3,13.3,7.3z"/>
		<path class="st2" d="M10.5,17c-0.2,0-0.4-0.1-0.5-0.2L9.1,16c-0.3-0.3-0.3-0.8,0-1.1s0.8-0.3,1.1,0l0.9,0.9c0.3,0.3,0.3,0.8,0,1.1
			C10.8,17,10.6,17,10.5,17z"/>
		<path class="st2" d="M13.4,11.7c-0.6,0-1-0.4-1-1s0.4-1,1-1h0c0.6,0,1,0.4,1,1S14,11.7,13.4,11.7z"/>
	</g>
</g>
</svg>
