<svg xmlns="http://www.w3.org/2000/svg" width="37" height="37" fill="none"><defs><clipPath id="a"><path fill="#fff" fill-opacity="0" d="M0 0h37v37H0z"/></clipPath></defs><path fill="none" d="M0 0h37v37H0z"/><g fill="#000" clip-path="url(#a)"><path d="M18.5 34.88c-1.04 0-2.09-.23-2.9-.71l-8.48-4.88c-3.46-2.33-3.67-2.69-3.67-6.34v-8.91c0-3.65.2-4.01 3.59-6.31l8.54-4.93c1.62-.94 4.16-.94 5.78 0l8.51 4.9c3.46 2.33 3.67 2.69 3.67 6.34v8.89c0 3.66-.2 4.01-3.59 6.31l-8.54 4.93c-.83.48-1.88.71-2.91.71Zm0-30.46c-.65 0-1.28.12-1.73.38L8.29 9.71c-2.51 1.69-2.51 1.69-2.51 4.33v8.89c0 2.64 0 2.64 2.57 4.38l8.42 4.86c.91.52 2.56.52 3.47 0l8.48-4.9c2.49-1.7 2.49-1.7 2.49-4.34v-8.89c0-2.64 0-2.64-2.57-4.38L20.22 4.8c-.45-.26-1.08-.38-1.72-.38Z"/><path d="M18.5 24.28a5.785 5.785 0 1 1-.01-11.57 5.785 5.785 0 0 1 .01 11.57Zm0-9.25a3.465 3.465 0 1 0-.01 6.93 3.465 3.465 0 0 0 .01-6.93Z"/></g></svg>