<svg xmlns="http://www.w3.org/2000/svg" width="24" height="24" fill="none"><defs><clipPath id="a"><path fill="#fff" fill-opacity="0" d="M0 0h24v24H0z"/></clipPath></defs><path fill="none" d="M0 0h24v24H0z"/><g fill="#9197B3" clip-path="url(#a)"><path d="M8 22.31c-.29 0-.58-.07-.84-.21-.57-.3-.91-.9-.91-1.54v-1.41c-3.03-.31-5-2.54-5-5.72v-6c0-3.44 2.31-5.75 5.75-5.75h10c3.44 0 5.75 2.31 5.75 5.75v6c0 3.44-2.31 5.75-5.75 5.75h-3.77l-4.27 2.85c-.29.19-.62.28-.96.28ZM7 3.17c-2.59 0-4.25 1.67-4.25 4.25v6.01c0 2.58 1.66 4.25 4.25 4.25.4 0 .75.34.75.75v2.13c0 .13.08.19.13.22.04.03.15.06.26-.01l4.45-2.96c.12-.08.27-.13.42-.13h4c2.58 0 4.25-1.67 4.25-4.25V7.42c0-2.58-1.67-4.25-4.25-4.25H7Z"/><path d="M11.99 12.1c-.41 0-.75-.34-.75-.75v-.21c0-1.16.85-1.73 1.17-1.95.37-.25.49-.42.49-.68 0-.5-.41-.91-.91-.91s-.91.41-.91.91c0 .41-.34.75-.75.75s-.75-.34-.75-.75c0-1.33 1.08-2.41 2.41-2.41s2.41 1.08 2.41 2.41c0 1.14-.84 1.71-1.15 1.92-.39.26-.51.43-.51.71v.21c0 .42-.34.75-.75.75ZM12 14.6a.749.749 0 1 1-.002-1.498A.749.749 0 0 1 12 14.6Z"/></g></svg>