<svg aria-hidden="true" style="position: absolute; width: 0; height: 0; overflow: hidden;" version="1.1" xmlns="http://www.w3.org/2000/svg" xmlns:xlink="http://www.w3.org/1999/xlink">
<defs>
<symbol id="icon-logo" viewBox="0 0 32 32">
<path d="M16 30.166c-0.899 0-1.808-0.199-2.508-0.614l-7.334-4.221c-2.992-2.015-3.174-2.326-3.174-5.483v-7.706c0-3.157 0.173-3.468 3.105-5.457l7.386-4.264c1.401-0.813 3.598-0.813 4.999 0l7.36 4.238c2.992 2.015 3.174 2.326 3.174 5.483v7.689c0 3.165-0.173 3.468-3.105 5.457l-7.386 4.264c-0.718 0.415-1.626 0.614-2.517 0.614zM16 3.823c-0.562 0-1.107 0.104-1.496 0.329l-7.334 4.247c-2.171 1.462-2.171 1.462-2.171 3.745v7.689c0 2.283 0 2.283 2.223 3.788l7.282 4.203c0.787 0.45 2.214 0.45 3.001 0l7.334-4.238c2.154-1.47 2.154-1.47 2.154-3.753v-7.689c0-2.283 0-2.283-2.223-3.788l-7.282-4.203c-0.389-0.225-0.934-0.329-1.488-0.329z"></path>
<path d="M16 20.999c-0.001 0-0.003 0-0.004 0-2.763 0-5.003-2.24-5.003-5.003 0-2.762 2.238-5.001 4.999-5.003h0c0.001 0 0.003 0 0.004 0 2.763 0 5.003 2.24 5.003 5.003 0 2.762-2.238 5.001-4.999 5.003h-0zM16 12.999c-0.001 0-0.003 0-0.004 0-1.655 0-2.997 1.342-2.997 2.997 0 1.654 1.339 2.994 2.992 2.997h0c0.001 0 0.003 0 0.004 0 1.655 0 2.997-1.342 2.997-2.997 0-1.654-1.339-2.994-2.992-2.997h-0z"></path>
</symbol>
<symbol id="icon-d-square" viewBox="0 0 32 32">
<path d="M20 30.333h-8c-7.24 0-10.333-3.093-10.333-10.333v-8c0-7.24 3.093-10.333 10.333-10.333h8c7.24 0 10.333 3.093 10.333 10.333v8c0 7.24-3.093 10.333-10.333 10.333zM12 3.667c-6.147 0-8.333 2.187-8.333 8.333v8c0 6.147 2.187 8.333 8.333 8.333h8c6.147 0 8.333-2.187 8.333-8.333v-8c0-6.147-2.187-8.333-8.333-8.333h-8z"></path>
<path d="M16 17.427c-0.173 0-0.347-0.040-0.507-0.133l-7.067-4.080c-0.299-0.174-0.497-0.493-0.497-0.858 0-0.185 0.051-0.358 0.139-0.507l-0.002 0.005c0.28-0.48 0.893-0.64 1.36-0.36l6.56 3.8 6.52-3.773c0.48-0.28 1.093-0.107 1.36 0.36s0.107 1.093-0.36 1.36l-7.013 4.053c-0.147 0.080-0.32 0.133-0.493 0.133z"></path>
<path d="M16 24.693c-0.547 0-1-0.453-1-1v-7.253c0-0.547 0.453-1 1-1s1 0.453 1 1v7.253c0 0.547-0.453 1-1 1z"></path>
<path d="M16 24.987c-0.773 0-1.533-0.173-2.147-0.507l-4.267-2.373c-1.28-0.707-2.267-2.4-2.267-3.867v-4.52c0-1.453 1-3.147 2.267-3.867l4.267-2.373c1.227-0.68 3.067-0.68 4.293 0l4.267 2.373c1.28 0.707 2.267 2.4 2.267 3.867v4.52c0 1.453-1 3.147-2.267 3.867l-4.267 2.373c-0.613 0.347-1.373 0.507-2.147 0.507zM16 8.987c-0.44 0-0.867 0.080-1.173 0.253l-4.267 2.373c-0.653 0.36-1.24 1.373-1.24 2.107v4.52c0 0.747 0.587 1.747 1.24 2.107l4.267 2.373c0.613 0.347 1.733 0.347 2.347 0l4.267-2.373c0.653-0.36 1.24-1.373 1.24-2.107v-4.52c0-0.747-0.587-1.747-1.24-2.107l-4.267-2.373c-0.307-0.173-0.733-0.253-1.173-0.253z"></path>
</symbol>
<symbol id="icon-chevron-right" viewBox="0 0 32 32">
<path d="M12 26c-0.6 0-1-0.2-1.4-0.6-0.8-0.8-0.8-2 0-2.8l6.6-6.6-6.6-6.6c-0.8-0.8-0.8-2 0-2.8s2-0.8 2.8 0l8 8c0.8 0.8 0.8 2 0 2.8l-8 8c-0.4 0.4-0.8 0.6-1.4 0.6z"></path>
</symbol>
<symbol id="icon-discount-shape" viewBox="0 0 32 32">
<path d="M16 30.333c-0.84 0-1.627-0.32-2.213-0.92l-2.027-2.027c-0.16-0.16-0.587-0.333-0.813-0.333h-2.867c-1.733 0-3.147-1.4-3.147-3.133v-2.88c0-0.213-0.16-0.64-0.333-0.8l-2.013-2.027c-0.587-0.587-0.92-1.373-0.92-2.213s0.307-1.627 0.92-2.213l2.013-2.027c0.173-0.16 0.333-0.587 0.333-0.8v-2.88c0-1.733 1.413-3.133 3.147-3.133h2.867c0.227 0 0.653-0.173 0.813-0.333l2.027-2.027c1.173-1.173 3.253-1.173 4.427 0l2.027 2.027c0.16 0.16 0.587 0.333 0.8 0.333h2.88c1.733 0 3.133 1.4 3.133 3.133v2.88c0 0.213 0.173 0.64 0.333 0.8l2.027 2.027c0.587 0.587 0.92 1.373 0.92 2.213s-0.32 1.627-0.92 2.213l-2.027 2.027c-0.16 0.16-0.333 0.587-0.333 0.8v2.88c0 1.733-1.4 3.133-3.133 3.133h-2.88c-0.213 0-0.64 0.173-0.8 0.333l-2.027 2.027c-0.587 0.6-1.373 0.92-2.213 0.92zM6.027 18.827c0.52 0.533 0.907 1.467 0.907 2.213v2.88c0 0.627 0.52 1.133 1.147 1.133h2.867c0.76 0 1.68 0.387 2.227 0.92l2.027 2.027c0.427 0.427 1.173 0.427 1.6 0l2.027-2.027c0.533-0.533 1.467-0.92 2.213-0.92h2.88c0.627 0 1.133-0.507 1.133-1.133v-2.88c0-0.747 0.387-1.68 0.92-2.213l2.027-2.027c0.206-0.203 0.333-0.485 0.333-0.797 0-0.001 0-0.002 0-0.003v0c0-0.001 0-0.002 0-0.003 0-0.312-0.128-0.594-0.333-0.797l-2.027-2.027c-0.533-0.533-0.92-1.467-0.92-2.213v-2.88c0-0.626-0.507-1.133-1.133-1.133v0h-2.88c-0.747 0-1.68-0.387-2.213-0.92l-2.027-2.027c-0.208-0.198-0.49-0.32-0.8-0.32s-0.592 0.122-0.8 0.32l0-0-2.027 2.027c-0.547 0.533-1.467 0.92-2.227 0.92h-2.867c-0.627 0-1.147 0.507-1.147 1.133v2.88c0 0.747-0.387 1.68-0.907 2.213l-2.027 2.027c-0.206 0.203-0.333 0.485-0.333 0.797 0 0.001 0 0.002 0 0.003v-0c0 0.307 0.12 0.587 0.333 0.8l2.027 2.027z"></path>
<path d="M20 21.333c-0.747 0-1.347-0.6-1.347-1.333s0.6-1.333 1.333-1.333 1.333 0.6 1.333 1.333-0.587 1.333-1.32 1.333zM12.013 13.333c-0.747 0-1.347-0.6-1.347-1.333s0.6-1.333 1.333-1.333c0.72 0 1.333 0.6 1.333 1.333s-0.587 1.333-1.32 1.333zM11.987 20.987c-0.253 0-0.507-0.093-0.707-0.293-0.179-0.181-0.29-0.431-0.29-0.707s0.111-0.525 0.29-0.707l8-8c0.387-0.387 1.027-0.387 1.413 0s0.387 1.027 0 1.413l-8 8c-0.2 0.2-0.453 0.293-0.707 0.293z"></path>
</symbol>
<symbol id="icon-key-square" viewBox="0 0 32 32">
<path d="M20 30.4h-8c-7.2 0-10.4-3.067-10.4-10.4v-8c0-7.2 3.067-10.4 10.4-10.4h8c7.2 0 10.4 3.067 10.4 10.4v8c0 7.2-3.2 10.4-10.4 10.4zM12 3.733c-6.133 0-8.267 2.133-8.267 8.267v8c0 6.133 2.133 8.4 8.4 8.4h8c6.133 0 8.4-2.133 8.4-8.4v-8c0-6.133-2.133-8.4-8.4-8.4h-8.133z"></path>
<path d="M11.733 24.267c-0.133 0-0.133 0-0.267 0l-1.6-0.267c-0.933 0-1.867-0.8-2-1.867l-0.267-1.6c-0.133-0.667 0.133-1.467 0.667-1.867l3.067-3.067c-0.4-2.133 0.267-4.4 1.733-6 2.533-2.533 6.667-2.533 9.333 0 1.2 1.2 1.867 2.933 1.867 4.667s-0.667 3.333-1.867 4.667c-1.6 1.6-3.867 2.267-6 1.733l-3.067 2.933c-0.267 0.4-0.933 0.667-1.6 0.667zM17.733 9.733c-1.2 0-2.267 0.4-3.2 1.333-1.2 1.2-1.6 2.933-1.2 4.533 0.133 0.4 0 0.8-0.267 0.933l-3.333 3.467c0 0-0.133 0.133-0.133 0.267l0.267 1.6c0 0.133 0.133 0.267 0.267 0.267l1.6 0.267c0.133 0 0.133 0 0.267-0.133l3.467-3.467c0.267-0.267 0.667-0.4 1.067-0.267 1.6 0.533 3.333 0.133 4.533-1.067 0.8-0.8 1.333-2 1.333-3.2s-0.533-2.4-1.333-3.2c-0.933-0.933-2.133-1.333-3.333-1.333z"></path>
<path d="M14 22.667c-0.267 0-0.533-0.133-0.667-0.267l-1.2-1.067c-0.4-0.4-0.4-1.067 0-1.467s1.067-0.4 1.467 0l1.2 1.2c0.4 0.4 0.4 1.067 0 1.467-0.4 0.133-0.667 0.133-0.8 0.133z"></path>
<path d="M17.867 15.6c-0.8 0-1.333-0.533-1.333-1.333s0.533-1.333 1.333-1.333v0c0.8 0 1.333 0.533 1.333 1.333s-0.533 1.333-1.333 1.333z"></path>
</symbol>
<symbol id="icon-message-question" viewBox="0 0 32 32">
<path d="M10.667 29.747c-0.387 0-0.773-0.093-1.12-0.28-0.76-0.4-1.213-1.2-1.213-2.053v-1.88c-4.040-0.413-6.667-3.387-6.667-7.627v-8c0-4.587 3.080-7.667 7.667-7.667h13.333c4.587 0 7.667 3.080 7.667 7.667v8c0 4.587-3.080 7.667-7.667 7.667h-5.027l-5.693 3.8c-0.387 0.253-0.827 0.373-1.28 0.373zM9.333 4.227c-3.453 0-5.667 2.227-5.667 5.667v8.013c0 3.44 2.213 5.667 5.667 5.667 0.533 0 1 0.453 1 1v2.84c0 0.173 0.107 0.253 0.173 0.293 0.053 0.040 0.2 0.080 0.347-0.013l5.933-3.947c0.16-0.107 0.36-0.173 0.56-0.173h5.333c3.44 0 5.667-2.227 5.667-5.667v-8.013c0-3.44-2.227-5.667-5.667-5.667h-13.347z"></path>
<path d="M15.987 16.133c-0.547 0-1-0.453-1-1v-0.28c0-1.547 1.133-2.307 1.56-2.6 0.493-0.333 0.653-0.56 0.653-0.907 0-0.667-0.547-1.213-1.213-1.213s-1.213 0.547-1.213 1.213c0 0.547-0.453 1-1 1s-1-0.453-1-1c0-1.773 1.44-3.213 3.213-3.213s3.213 1.44 3.213 3.213c0 1.52-1.12 2.28-1.533 2.56-0.52 0.347-0.68 0.573-0.68 0.947v0.28c0 0.56-0.453 1-1 1zM16 19.467c-0 0-0.001 0-0.001 0-0.552 0-0.999-0.447-0.999-0.999s0.446-0.998 0.997-0.999h0c0 0 0.001 0 0.001 0 0.552 0 0.999 0.447 0.999 0.999s-0.446 0.998-0.997 0.999h-0z"></path>
</symbol>
<symbol id="icon-search" viewBox="0 0 32 32">
<path d="M14.667 26.667c-6.667 0-12-5.333-12-12s5.333-12 12-12c6.667 0 12 5.333 12 12s-5.333 12-12 12zM14.667 5.333c-5.2 0-9.333 4.133-9.333 9.333s4.133 9.333 9.333 9.333c5.2 0 9.333-4.133 9.333-9.333s-4.133-9.333-9.333-9.333z"></path>
<path d="M28 29.333c-0.4 0-0.667-0.133-0.933-0.4l-5.733-5.733c-0.533-0.533-0.533-1.333 0-1.867s1.333-0.533 1.867 0l5.733 5.733c0.533 0.533 0.533 1.333 0 1.867-0.267 0.267-0.533 0.4-0.933 0.4z"></path>
</symbol>
<symbol id="icon-user-square" viewBox="0 0 32 32">
<path d="M20 30.267h-8c-1.733 0-3.2-0.133-4.4-0.533-0.4-0.133-0.8-0.533-0.667-1.067 0.4-4 4.4-7.067 9.2-7.067s8.8 3.067 9.2 7.067c0 0.533-0.267 0.933-0.667 1.067-1.467 0.4-2.933 0.533-4.667 0.533zM8.933 28c0.933 0.133 1.867 0.267 3.067 0.267h8c1.2 0 2.133-0.133 3.067-0.267-0.667-2.533-3.6-4.4-7.067-4.4s-6.267 1.867-7.067 4.4z"></path>
<path d="M7.867 29.867c-0.133 0-0.133 0-0.267 0-4-1.2-5.867-4.267-5.867-9.733v-8.133c0-7.2 3.067-10.4 10.4-10.4h8c7.2 0 10.4 3.067 10.4 10.4v8c0 5.6-1.867 8.667-5.867 9.733-0.267 0.133-0.533 0-0.8-0.133s-0.4-0.4-0.4-0.8c-0.267-2.933-3.467-5.333-7.2-5.333s-6.933 2.267-7.2 5.333c0 0.267-0.133 0.533-0.4 0.8-0.533 0.133-0.667 0.267-0.8 0.267zM12 3.733c-6.133 0-8.267 2.133-8.267 8.267v8c0 4.133 1.067 6.4 3.333 7.467 0.933-3.333 4.667-5.867 8.933-5.867s8 2.533 8.933 5.867c2.4-1.067 3.333-3.467 3.333-7.467v-8c0-6.133-2.133-8.4-8.4-8.4h-7.867zM16 19.867c-3.2 0-5.733-2.533-5.733-5.733s2.533-5.733 5.733-5.733c3.2 0 5.733 2.533 5.733 5.733s-2.533 5.733-5.733 5.733zM16 10.4c-2.133 0-3.733 1.733-3.733 3.733 0 2.133 1.733 3.733 3.733 3.733 2.133 0 3.733-1.733 3.733-3.733 0-2.133-1.6-3.733-3.733-3.733z"></path>
<path d="M16 19.867c-3.2 0-5.733-2.533-5.733-5.733s2.533-5.733 5.733-5.733 5.733 2.533 5.733 5.733c0 3.2-2.533 5.733-5.733 5.733zM16 10.4c-2.133 0-3.733 1.733-3.733 3.867 0 2 1.733 3.6 3.733 3.733 2.133 0 3.733-1.733 3.733-3.867-0.133-2.133-1.733-3.733-3.733-3.733z"></path>
</symbol>
<symbol id="icon-wallet-money" viewBox="0 0 32 32">
<path d="M9.6 30.4c-3.2 0-5.733-2.267-5.733-5.2v-2.667c0-0.533 0.4-1.067 1.067-1.067s1.067 0.4 1.067 1.067c0 1.6 1.6 2.933 3.733 2.933s3.733-1.2 3.733-2.933c0-0.533 0.4-1.067 1.067-1.067s1.067 0.4 1.067 1.067v2.667c-0.267 2.8-2.8 5.2-6 5.2zM6.133 26.533c0.533 1.067 1.867 1.867 3.467 1.867 1.467 0 2.8-0.8 3.467-1.867-0.933 0.533-2.133 0.933-3.467 0.933-1.333-0.133-2.533-0.4-3.467-0.933z"></path>
<path d="M9.6 23.733c-2.133 0-4.133-0.933-5.067-2.533-0.4-0.667-0.667-1.467-0.667-2.4 0-1.333 0.667-2.667 1.733-3.733 2.133-1.867 5.867-1.867 8 0 1.067 0.933 1.733 2.267 1.733 3.733 0 0.8-0.267 1.6-0.667 2.267 0 0 0 0 0 0-0.933 1.733-2.933 2.667-5.067 2.667zM9.6 15.733c-1.067 0-2 0.4-2.667 0.933s-1.067 1.333-1.067 2.133c0 0.4 0.133 0.933 0.4 1.333 0.667 0.933 1.867 1.6 3.467 1.6 1.467 0 2.8-0.667 3.467-1.6 0.267-0.4 0.4-0.8 0.4-1.333 0-0.8-0.4-1.6-1.067-2.133-0.933-0.667-2-0.933-2.933-0.933z"></path>
<path d="M9.6 27.333c-3.333 0-5.733-2.133-5.733-4.933v-3.733c0-2.8 2.533-5.2 5.733-5.2 1.467 0 2.933 0.533 4 1.467s1.733 2.267 1.733 3.733v3.733c0 2.933-2.533 4.933-5.733 4.933zM9.6 15.733c-2.133 0-3.733 1.467-3.733 3.2v3.733c0 1.6 1.6 2.933 3.733 2.933s3.733-1.2 3.733-2.933v-3.733c0-0.8-0.4-1.6-1.067-2.133-0.667-0.8-1.6-1.067-2.667-1.067zM25.333 19.733c-2 0-3.733-1.467-3.867-3.467-0.133-1.067 0.267-2.133 1.067-2.933 0.667-0.667 1.6-1.067 2.667-1.067h2.8c1.333 0 2.4 1.067 2.4 2.4v2.667c0 1.333-1.067 2.267-2.267 2.4h-2.8zM28 14.267h-2.8c-0.4 0-0.933 0.133-1.2 0.533-0.4 0.4-0.533 0.933-0.533 1.333 0.133 0.933 0.933 1.6 1.867 1.6h2.667c0.133 0 0.4-0.133 0.4-0.4v-2.667c0-0.267-0.267-0.4-0.4-0.4z"></path>
<path d="M21.333 28.4h-3.333c-0.533 0-1.067-0.4-1.067-1.067s0.4-1.067 1.067-1.067h3.333c3.467 0 5.733-2.267 5.733-5.733v-0.933h-1.733c-2 0-3.733-1.467-3.867-3.467-0.133-1.067 0.267-2.133 1.067-2.933 0.667-0.667 1.6-1.067 2.667-1.067h1.733v-0.8c0-3.067-1.867-5.333-4.8-5.6-0.267 0-0.533 0-0.933 0h-11.867c-0.4 0-0.667 0-0.933 0-2.933 0.4-4.667 2.533-4.667 5.6v2.667c0 0.533-0.4 1.067-1.067 1.067s-1.067-0.4-1.067-1.067v-2.667c0-4.133 2.533-7.067 6.4-7.6 0.533 0 0.933 0 1.333 0h12c0.4 0 0.8 0 1.2 0.133 3.867 0.4 6.533 3.467 6.533 7.6v1.867c0 0.533-0.4 1.067-1.067 1.067h-2.8c-0.4 0-0.933 0.133-1.2 0.533-0.4 0.4-0.533 0.933-0.533 1.333 0.133 0.8 0.933 1.6 1.867 1.6h2.667c0.533 0 1.067 0.4 1.067 1.067v2c0 4.267-3.2 7.467-7.733 7.467z"></path>
</symbol>
<symbol id="icon-menu" viewBox="0 0 24 24">
<path d="M3 13h18c0.552 0 1-0.448 1-1s-0.448-1-1-1h-18c-0.552 0-1 0.448-1 1s0.448 1 1 1zM3 7h18c0.552 0 1-0.448 1-1s-0.448-1-1-1h-18c-0.552 0-1 0.448-1 1s0.448 1 1 1zM3 19h18c0.552 0 1-0.448 1-1s-0.448-1-1-1h-18c-0.552 0-1 0.448-1 1s0.448 1 1 1z"></path>
</symbol>
<symbol id="icon-close" viewBox="0 0 24 24">
<path d="M5.293 6.707l5.293 5.293-5.293 5.293c-0.391 0.391-0.391 1.024 0 1.414s1.024 0.391 1.414 0l5.293-5.293 5.293 5.293c0.391 0.391 1.024 0.391 1.414 0s0.391-1.024 0-1.414l-5.293-5.293 5.293-5.293c0.391-0.391 0.391-1.024 0-1.414s-1.024-0.391-1.414 0l-5.293 5.293-5.293-5.293c-0.391-0.391-1.024-0.391-1.414 0s-0.391 1.024 0 1.414z"></path>
</symbol>
</defs>
</svg>
