<?xml version="1.0" encoding="utf-8"?>
<!-- Generator: Adobe Illustrator 22.1.0, SVG Export Plug-In . SVG Version: 6.00 Build 0)  -->
<svg version="1.1" id="Слой_1" xmlns="http://www.w3.org/2000/svg" xmlns:xlink="http://www.w3.org/1999/xlink" x="0px" y="0px"
	 viewBox="0 0 24 24" style="enable-background:new 0 0 24 24;" xml:space="preserve">
<style type="text/css">
	.st0{fill:none;}
	.st1{clip-path:url(#SVGID_2_);}
	.st2{fill:#FFFFFF;}
</style>
<path class="st0" d="M0,0h24v24H0V0z"/>
<g>
	<defs>
		<rect id="SVGID_1_" width="24" height="24"/>
	</defs>
	<clipPath id="SVGID_2_">
		<use xlink:href="#SVGID_1_"  style="overflow:visible;"/>
	</clipPath>
	<g class="st1">
		<path class="st2" d="M15,22.7H9c-1.3,0-2.4-0.1-3.3-0.4c-0.3-0.1-0.6-0.4-0.5-0.8c0.3-3,3.3-5.3,6.9-5.3s6.6,2.3,6.9,5.3
			c0,0.4-0.2,0.7-0.5,0.8C17.4,22.6,16.3,22.7,15,22.7z M6.7,21c0.7,0.1,1.4,0.2,2.3,0.2h6c0.9,0,1.6-0.1,2.3-0.2
			c-0.5-1.9-2.7-3.3-5.3-3.3S7.3,19.1,6.7,21z"/>
		<path class="st2" d="M5.9,22.4c-0.1,0-0.1,0-0.2,0c-3-0.9-4.4-3.2-4.4-7.3V9c0-5.4,2.3-7.8,7.8-7.8h6c5.4,0,7.8,2.3,7.8,7.8v6
			c0,4.2-1.4,6.5-4.4,7.3c-0.2,0.1-0.4,0-0.6-0.1c-0.2-0.1-0.3-0.3-0.3-0.6c-0.2-2.2-2.6-4-5.4-4c-2.8,0-5.2,1.7-5.4,4
			c0,0.2-0.1,0.4-0.3,0.6C6.1,22.3,6,22.4,5.9,22.4z M9,2.8C4.4,2.8,2.8,4.4,2.8,9v6c0,3.1,0.8,4.8,2.5,5.6c0.7-2.5,3.5-4.4,6.7-4.4
			c3.2,0,6,1.9,6.7,4.4c1.8-0.8,2.5-2.6,2.5-5.6V9c0-4.6-1.6-6.3-6.3-6.3H9z M12,14.9c-2.4,0-4.3-1.9-4.3-4.3c0-2.4,1.9-4.3,4.3-4.3
			c2.4,0,4.3,1.9,4.3,4.3C16.3,13,14.4,14.9,12,14.9z M12,7.8c-1.6,0-2.8,1.3-2.8,2.8c0,1.6,1.3,2.8,2.8,2.8c1.6,0,2.8-1.3,2.8-2.8
			C14.8,9,13.6,7.8,12,7.8z"/>
		<path class="st2" d="M12,14.9c-2.4,0-4.3-1.9-4.3-4.3c0-2.4,1.9-4.3,4.3-4.3s4.3,1.9,4.3,4.3C16.3,13,14.4,14.9,12,14.9z M12,7.8
			c-1.6,0-2.8,1.3-2.8,2.9c0,1.5,1.3,2.7,2.8,2.8c1.6,0,2.8-1.3,2.8-2.9C14.7,9,13.5,7.8,12,7.8z"/>
	</g>
</g>
</svg>
